<svg width="1024" height="512" viewBox="0 0 1024 512" fill="none" xmlns="http://www.w3.org/2000/svg">
<g clip-path="url(#clip0_2207_2)">
<circle cx="774" cy="256" r="200" fill="#FDD142"/>
<path d="M88.875 317.781C66.375 317.781 50.9062 306.906 49.0312 290.219H65.7188C68.4375 298.656 76.5 304.188 89.4375 304.188C103.031 304.188 112.688 297.719 112.688 288.531V288.344C112.688 281.5 107.531 276.719 95.0625 273.719L79.4062 269.969C60.4688 265.469 51.9375 257.219 51.9375 242.688V242.594C51.9375 225.812 68.0625 213.156 89.5312 213.156C110.719 213.156 125.438 223.75 127.688 240.25H111.656C109.5 232.281 101.625 226.75 89.4375 226.75C77.4375 226.75 68.625 232.938 68.625 241.844V242.031C68.625 248.875 73.6875 253.188 85.5938 256.094L101.156 259.844C120.188 264.438 129.375 272.688 129.375 287.125V287.312C129.375 305.312 111.844 317.781 88.875 317.781ZM171.375 316L143.062 214.938H159.375L179.25 295.75H180.75L203.344 214.938H218.812L241.406 295.75H242.906L262.781 214.938H279L250.688 316H234.281L211.688 237.812H210.188L187.688 316H171.375ZM338.062 317.781C309.188 317.781 291.75 297.531 291.75 265.844V265.75C291.75 234.531 309.562 213.156 337.031 213.156C364.5 213.156 381.188 233.594 381.188 263.781V270.156H308.438C308.906 291.062 320.438 303.25 338.438 303.25C352.125 303.25 360.562 296.781 363.281 290.688L363.656 289.844H379.969L379.781 290.594C376.312 304.281 361.875 317.781 338.062 317.781ZM336.938 227.688C321.938 227.688 310.5 237.906 308.719 257.125H364.594C362.906 237.156 351.844 227.688 336.938 227.688ZM447.75 317.781C418.875 317.781 401.438 297.531 401.438 265.844V265.75C401.438 234.531 419.25 213.156 446.719 213.156C474.188 213.156 490.875 233.594 490.875 263.781V270.156H418.125C418.594 291.062 430.125 303.25 448.125 303.25C461.812 303.25 470.25 296.781 472.969 290.688L473.344 289.844H489.656L489.469 290.594C486 304.281 471.562 317.781 447.75 317.781ZM446.625 227.688C431.625 227.688 420.188 237.906 418.406 257.125H474.281C472.594 237.156 461.531 227.688 446.625 227.688ZM552.094 316.75C531.281 316.75 522.562 309.062 522.562 289.75V228.438H506.625V214.938H522.562V188.781H539.438V214.938H561.562V228.438H539.438V285.625C539.438 297.531 543.562 302.312 554.062 302.312C556.969 302.312 558.562 302.219 561.562 301.938V315.812C558.375 316.375 555.281 316.75 552.094 316.75ZM618.75 317.781C596.25 317.781 580.781 306.906 578.906 290.219H595.594C598.312 298.656 606.375 304.188 619.312 304.188C632.906 304.188 642.562 297.719 642.562 288.531V288.344C642.562 281.5 637.406 276.719 624.938 273.719L609.281 269.969C590.344 265.469 581.812 257.219 581.812 242.688V242.594C581.812 225.812 597.938 213.156 619.406 213.156C640.594 213.156 655.312 223.75 657.562 240.25H641.531C639.375 232.281 631.5 226.75 619.312 226.75C607.312 226.75 598.5 232.938 598.5 241.844V242.031C598.5 248.875 603.562 253.188 615.469 256.094L631.031 259.844C650.062 264.438 659.25 272.688 659.25 287.125V287.312C659.25 305.312 641.719 317.781 618.75 317.781ZM684.562 349.75V214.938H700.875V231.062H702.375C708.562 219.812 719.812 213.156 733.875 213.156C759.469 213.156 776.25 233.875 776.25 265.375V265.562C776.25 297.25 759.562 317.781 733.875 317.781C720 317.781 707.906 310.844 702.375 300.062H700.875V349.75H684.562ZM730.125 303.344C748.594 303.344 759.562 289.094 759.562 265.562V265.375C759.562 241.844 748.594 227.594 730.125 227.594C711.75 227.594 700.5 242.031 700.5 265.375V265.562C700.5 288.906 711.75 303.344 730.125 303.344ZM843.281 317.781C814.5 317.781 796.688 297.906 796.688 265.562V265.375C796.688 232.938 814.5 213.156 843.281 213.156C872.062 213.156 889.875 232.938 889.875 265.375V265.562C889.875 297.906 872.062 317.781 843.281 317.781ZM843.281 303.344C862.406 303.344 873.188 289.375 873.188 265.562V265.375C873.188 241.469 862.406 227.594 843.281 227.594C824.156 227.594 813.375 241.469 813.375 265.375V265.562C813.375 289.375 824.156 303.344 843.281 303.344ZM951.094 316.75C930.281 316.75 921.562 309.062 921.562 289.75V228.438H905.625V214.938H921.562V188.781H938.438V214.938H960.562V228.438H938.438V285.625C938.438 297.531 942.562 302.312 953.062 302.312C955.969 302.312 957.562 302.219 960.562 301.938V315.812C957.375 316.375 954.281 316.75 951.094 316.75Z" fill="black"/>
</g>
<defs>
<clipPath id="clip0_2207_2">
<rect width="1024" height="512" fill="white"/>
</clipPath>
</defs>
</svg>